<svg width="73" height="74" viewBox="0 0 73 74" fill="none" xmlns="http://www.w3.org/2000/svg">
<rect x="0.759678" y="0.885731" width="71.4097" height="71.4097" rx="35.7049" stroke="#EFFAF4" stroke-width="1.51936"/>
<path d="M30.0837 21.3971H42.8463C47.7083 21.3971 51.6586 25.3474 51.6586 30.2094V42.972C51.6586 45.3091 50.7302 47.5506 49.0775 49.2032C47.4249 50.8558 45.1835 51.7842 42.8463 51.7842H30.0837C25.2218 51.7842 21.2715 47.8339 21.2715 42.972V30.2094C21.2715 27.8722 22.1999 25.6308 23.8525 23.9782C25.5052 22.3256 27.7466 21.3971 30.0837 21.3971ZM29.7799 24.4358C28.3292 24.4358 26.938 25.0121 25.9122 26.0379C24.8865 27.0636 24.3102 28.4549 24.3102 29.9055V43.2758C24.3102 46.2994 26.7564 48.7455 29.7799 48.7455H43.1502C44.6009 48.7455 45.9921 48.1693 47.0179 47.1435C48.0436 46.1177 48.6199 44.7265 48.6199 43.2758V29.9055C48.6199 26.882 46.1737 24.4358 43.1502 24.4358H29.7799ZM44.4417 26.7149C44.9454 26.7149 45.4284 26.915 45.7846 27.2711C46.1408 27.6273 46.3409 28.1104 46.3409 28.6141C46.3409 29.1178 46.1408 29.6008 45.7846 29.957C45.4284 30.3132 44.9454 30.5133 44.4417 30.5133C43.938 30.5133 43.4549 30.3132 43.0987 29.957C42.7426 29.6008 42.5425 29.1178 42.5425 28.6141C42.5425 28.1104 42.7426 27.6273 43.0987 27.2711C43.4549 26.915 43.938 26.7149 44.4417 26.7149ZM36.465 28.9939C38.4798 28.9939 40.4121 29.7943 41.8368 31.2189C43.2614 32.6436 44.0618 34.5759 44.0618 36.5907C44.0618 38.6055 43.2614 40.5377 41.8368 41.9624C40.4121 43.3871 38.4798 44.1875 36.465 44.1875C34.4502 44.1875 32.518 43.3871 31.0933 41.9624C29.6686 40.5377 28.8683 38.6055 28.8683 36.5907C28.8683 34.5759 29.6686 32.6436 31.0933 31.2189C32.518 29.7943 34.4502 28.9939 36.465 28.9939ZM36.465 32.0326C35.2562 32.0326 34.0968 32.5128 33.242 33.3676C32.3872 34.2224 31.907 35.3818 31.907 36.5907C31.907 37.7996 32.3872 38.9589 33.242 39.8137C34.0968 40.6685 35.2562 41.1487 36.465 41.1487C37.6739 41.1487 38.8333 40.6685 39.6881 39.8137C40.5429 38.9589 41.0231 37.7996 41.0231 36.5907C41.0231 35.3818 40.5429 34.2224 39.6881 33.3676C38.8333 32.5128 37.6739 32.0326 36.465 32.0326Z" fill="#EFFAF4"/>
</svg>
