<svg width="74" height="74" viewBox="0 0 74 74" fill="none" xmlns="http://www.w3.org/2000/svg">
<rect x="1.08194" y="0.885731" width="71.4097" height="71.4097" rx="35.7049" stroke="#EFFAF4" stroke-width="1.51936"/>
<path d="M43.7758 27.2011C42.7374 26.0152 42.1651 24.4927 42.1653 22.9165H37.4705V41.7565C37.435 42.7763 37.0048 43.7424 36.2706 44.4511C35.5365 45.1597 34.5557 45.5555 33.5353 45.5549C31.3778 45.5549 29.585 43.7924 29.585 41.6045C29.585 38.9913 32.1071 37.0313 34.7052 37.8365V33.0354C29.4635 32.3365 24.875 36.4084 24.875 41.6045C24.875 46.664 29.0684 50.2649 33.5201 50.2649C38.2909 50.2649 42.1653 46.3905 42.1653 41.6045V32.0478C44.069 33.415 46.3547 34.1485 48.6985 34.1445V29.4497C48.6985 29.4497 45.8421 29.5864 43.7758 27.2011Z" fill="#EFFAF4"/>
</svg>
