<svg width="533" height="378" viewBox="0 0 533 378" fill="none" xmlns="http://www.w3.org/2000/svg">
<path d="M134.69 84.14H115.97V92.42C116.77 91.54 117.89 90.82 119.33 90.26C120.77 89.7 122.33 89.42 124.01 89.42C127.01 89.42 129.49 90.1 131.45 91.46C133.45 92.82 134.91 94.58 135.83 96.74C136.75 98.9 137.21 101.24 137.21 103.76C137.21 108.44 135.89 112.16 133.25 114.92C130.61 117.64 126.89 119 122.09 119C118.89 119 116.11 118.46 113.75 117.38C111.39 116.26 109.57 114.72 108.29 112.76C107.01 110.8 106.31 108.54 106.19 105.98H116.21C116.45 107.22 117.03 108.26 117.95 109.1C118.87 109.9 120.13 110.3 121.73 110.3C123.61 110.3 125.01 109.7 125.93 108.5C126.85 107.3 127.31 105.7 127.31 103.7C127.31 101.74 126.83 100.24 125.87 99.2C124.91 98.16 123.51 97.64 121.67 97.64C120.31 97.64 119.19 97.98 118.31 98.66C117.43 99.3 116.85 100.16 116.57 101.24H106.67V75.14H134.69V84.14ZM174.314 102.62H163.874V113.3H154.154V102.62H143.714V93.44H154.154V82.7H163.874V93.44H174.314V102.62Z" fill="#33FF00"/>
<path d="M62.6319 151.454L58.5459 159.266V164H56.9079V159.266L52.8039 151.454H54.6219L57.7179 157.808L60.8139 151.454H62.6319ZM73.3596 158.69C73.3596 159.002 73.3416 159.332 73.3056 159.68H65.4216C65.4816 160.652 65.8116 161.414 66.4116 161.966C67.0236 162.506 67.7616 162.776 68.6256 162.776C69.3336 162.776 69.9216 162.614 70.3896 162.29C70.8696 161.954 71.2056 161.51 71.3976 160.958H73.1616C72.8976 161.906 72.3696 162.68 71.5776 163.28C70.7856 163.868 69.8016 164.162 68.6256 164.162C67.6896 164.162 66.8496 163.952 66.1056 163.532C65.3736 163.112 64.7976 162.518 64.3776 161.75C63.9576 160.97 63.7476 160.07 63.7476 159.05C63.7476 158.03 63.9516 157.136 64.3596 156.368C64.7676 155.6 65.3376 155.012 66.0696 154.604C66.8136 154.184 67.6656 153.974 68.6256 153.974C69.5616 153.974 70.3896 154.178 71.1096 154.586C71.8296 154.994 72.3816 155.558 72.7656 156.278C73.1616 156.986 73.3596 157.79 73.3596 158.69ZM71.6676 158.348C71.6676 157.724 71.5296 157.19 71.2536 156.746C70.9776 156.29 70.5996 155.948 70.1196 155.72C69.6516 155.48 69.1296 155.36 68.5536 155.36C67.7256 155.36 67.0176 155.624 66.4296 156.152C65.8536 156.68 65.5236 157.412 65.4396 158.348H71.6676ZM74.9097 159.032C74.9097 158.024 75.1137 157.142 75.5217 156.386C75.9297 155.618 76.4877 155.024 77.1957 154.604C77.9157 154.184 78.7137 153.974 79.5897 153.974C80.4537 153.974 81.2037 154.16 81.8397 154.532C82.4757 154.904 82.9497 155.372 83.2617 155.936V154.136H84.9177V164H83.2617V162.164C82.9377 162.74 82.4517 163.22 81.8037 163.604C81.1677 163.976 80.4237 164.162 79.5717 164.162C78.6957 164.162 77.9037 163.946 77.1957 163.514C76.4877 163.082 75.9297 162.476 75.5217 161.696C75.1137 160.916 74.9097 160.028 74.9097 159.032ZM83.2617 159.05C83.2617 158.306 83.1117 157.658 82.8117 157.106C82.5117 156.554 82.1037 156.134 81.5877 155.846C81.0837 155.546 80.5257 155.396 79.9137 155.396C79.3017 155.396 78.7437 155.54 78.2397 155.828C77.7357 156.116 77.3337 156.536 77.0337 157.088C76.7337 157.64 76.5837 158.288 76.5837 159.032C76.5837 159.788 76.7337 160.448 77.0337 161.012C77.3337 161.564 77.7357 161.99 78.2397 162.29C78.7437 162.578 79.3017 162.722 79.9137 162.722C80.5257 162.722 81.0837 162.578 81.5877 162.29C82.1037 161.99 82.5117 161.564 82.8117 161.012C83.1117 160.448 83.2617 159.794 83.2617 159.05ZM89.3238 155.738C89.6118 155.174 90.0198 154.736 90.5478 154.424C91.0878 154.112 91.7418 153.956 92.5098 153.956V155.648H92.0778C90.2418 155.648 89.3238 156.644 89.3238 158.636V164H87.6858V154.136H89.3238V155.738ZM97.8926 164.162C97.1366 164.162 96.4586 164.036 95.8586 163.784C95.2586 163.52 94.7846 163.16 94.4366 162.704C94.0886 162.236 93.8966 161.702 93.8606 161.102H95.5526C95.6006 161.594 95.8286 161.996 96.2366 162.308C96.6566 162.62 97.2026 162.776 97.8746 162.776C98.4986 162.776 98.9906 162.638 99.3506 162.362C99.7106 162.086 99.8906 161.738 99.8906 161.318C99.8906 160.886 99.6986 160.568 99.3146 160.364C98.9306 160.148 98.3366 159.938 97.5326 159.734C96.8006 159.542 96.2006 159.35 95.7326 159.158C95.2766 158.954 94.8806 158.66 94.5446 158.276C94.2206 157.88 94.0586 157.364 94.0586 156.728C94.0586 156.224 94.2086 155.762 94.5086 155.342C94.8086 154.922 95.2346 154.592 95.7866 154.352C96.3386 154.1 96.9686 153.974 97.6766 153.974C98.7686 153.974 99.6506 154.25 100.323 154.802C100.995 155.354 101.355 156.11 101.403 157.07H99.7646C99.7286 156.554 99.5186 156.14 99.1346 155.828C98.7626 155.516 98.2586 155.36 97.6226 155.36C97.0346 155.36 96.5666 155.486 96.2186 155.738C95.8706 155.99 95.6966 156.32 95.6966 156.728C95.6966 157.052 95.7986 157.322 96.0026 157.538C96.2186 157.742 96.4826 157.91 96.7946 158.042C97.1186 158.162 97.5626 158.3 98.1266 158.456C98.8346 158.648 99.4106 158.84 99.8546 159.032C100.299 159.212 100.677 159.488 100.989 159.86C101.313 160.232 101.481 160.718 101.493 161.318C101.493 161.858 101.343 162.344 101.043 162.776C100.743 163.208 100.317 163.55 99.7646 163.802C99.2246 164.042 98.6006 164.162 97.8926 164.162ZM112.906 164.162C111.982 164.162 111.142 163.952 110.386 163.532C109.642 163.112 109.054 162.518 108.622 161.75C108.202 160.97 107.992 160.07 107.992 159.05C107.992 158.042 108.208 157.154 108.64 156.386C109.084 155.606 109.684 155.012 110.44 154.604C111.196 154.184 112.042 153.974 112.978 153.974C113.914 153.974 114.76 154.184 115.516 154.604C116.272 155.012 116.866 155.6 117.298 156.368C117.742 157.136 117.964 158.03 117.964 159.05C117.964 160.07 117.736 160.97 117.28 161.75C116.836 162.518 116.23 163.112 115.462 163.532C114.694 163.952 113.842 164.162 112.906 164.162ZM112.906 162.722C113.494 162.722 114.046 162.584 114.562 162.308C115.078 162.032 115.492 161.618 115.804 161.066C116.128 160.514 116.29 159.842 116.29 159.05C116.29 158.258 116.134 157.586 115.822 157.034C115.51 156.482 115.102 156.074 114.598 155.81C114.094 155.534 113.548 155.396 112.96 155.396C112.36 155.396 111.808 155.534 111.304 155.81C110.812 156.074 110.416 156.482 110.116 157.034C109.816 157.586 109.666 158.258 109.666 159.05C109.666 159.854 109.81 160.532 110.098 161.084C110.398 161.636 110.794 162.05 111.286 162.326C111.778 162.59 112.318 162.722 112.906 162.722ZM124.131 155.486H122.061V164H120.423V155.486H119.145V154.136H120.423V153.434C120.423 152.33 120.705 151.526 121.269 151.022C121.845 150.506 122.763 150.248 124.023 150.248V151.616C123.303 151.616 122.793 151.76 122.493 152.048C122.205 152.324 122.061 152.786 122.061 153.434V154.136H124.131V155.486ZM132.478 152.786V156.98H137.05V158.33H132.478V162.65H137.59V164H130.84V151.436H137.59V152.786H132.478ZM145.217 164L142.877 160.328L140.627 164H138.917L142.103 159.104L138.917 154.136H140.771L143.111 157.79L145.343 154.136H147.053L143.885 159.014L147.071 164H145.217ZM150.32 155.954C150.644 155.39 151.124 154.922 151.76 154.55C152.408 154.166 153.158 153.974 154.01 153.974C154.886 153.974 155.678 154.184 156.386 154.604C157.106 155.024 157.67 155.618 158.078 156.386C158.486 157.142 158.69 158.024 158.69 159.032C158.69 160.028 158.486 160.916 158.078 161.696C157.67 162.476 157.106 163.082 156.386 163.514C155.678 163.946 154.886 164.162 154.01 164.162C153.17 164.162 152.426 163.976 151.778 163.604C151.142 163.22 150.656 162.746 150.32 162.182V168.68H148.682V154.136H150.32V155.954ZM157.016 159.032C157.016 158.288 156.866 157.64 156.566 157.088C156.266 156.536 155.858 156.116 155.342 155.828C154.838 155.54 154.28 155.396 153.668 155.396C153.068 155.396 152.51 155.546 151.994 155.846C151.49 156.134 151.082 156.56 150.77 157.124C150.47 157.676 150.32 158.318 150.32 159.05C150.32 159.794 150.47 160.448 150.77 161.012C151.082 161.564 151.49 161.99 151.994 162.29C152.51 162.578 153.068 162.722 153.668 162.722C154.28 162.722 154.838 162.578 155.342 162.29C155.858 161.99 156.266 161.564 156.566 161.012C156.866 160.448 157.016 159.788 157.016 159.032ZM169.846 158.69C169.846 159.002 169.828 159.332 169.792 159.68H161.908C161.968 160.652 162.298 161.414 162.898 161.966C163.51 162.506 164.248 162.776 165.112 162.776C165.82 162.776 166.408 162.614 166.876 162.29C167.356 161.954 167.692 161.51 167.884 160.958H169.648C169.384 161.906 168.856 162.68 168.064 163.28C167.272 163.868 166.288 164.162 165.112 164.162C164.176 164.162 163.336 163.952 162.592 163.532C161.86 163.112 161.284 162.518 160.864 161.75C160.444 160.97 160.234 160.07 160.234 159.05C160.234 158.03 160.438 157.136 160.846 156.368C161.254 155.6 161.824 155.012 162.556 154.604C163.3 154.184 164.152 153.974 165.112 153.974C166.048 153.974 166.876 154.178 167.596 154.586C168.316 154.994 168.868 155.558 169.252 156.278C169.648 156.986 169.846 157.79 169.846 158.69ZM168.154 158.348C168.154 157.724 168.016 157.19 167.74 156.746C167.464 156.29 167.086 155.948 166.606 155.72C166.138 155.48 165.616 155.36 165.04 155.36C164.212 155.36 163.504 155.624 162.916 156.152C162.34 156.68 162.01 157.412 161.926 158.348H168.154ZM173.646 155.738C173.934 155.174 174.342 154.736 174.87 154.424C175.41 154.112 176.064 153.956 176.832 153.956V155.648H176.4C174.564 155.648 173.646 156.644 173.646 158.636V164H172.008V154.136H173.646V155.738ZM179.569 152.534C179.257 152.534 178.993 152.426 178.777 152.21C178.561 151.994 178.453 151.73 178.453 151.418C178.453 151.106 178.561 150.842 178.777 150.626C178.993 150.41 179.257 150.302 179.569 150.302C179.869 150.302 180.121 150.41 180.325 150.626C180.541 150.842 180.649 151.106 180.649 151.418C180.649 151.73 180.541 151.994 180.325 152.21C180.121 152.426 179.869 152.534 179.569 152.534ZM180.361 154.136V164H178.723V154.136H180.361ZM192.153 158.69C192.153 159.002 192.135 159.332 192.099 159.68H184.215C184.275 160.652 184.605 161.414 185.205 161.966C185.817 162.506 186.555 162.776 187.419 162.776C188.127 162.776 188.715 162.614 189.183 162.29C189.663 161.954 189.999 161.51 190.191 160.958H191.955C191.691 161.906 191.163 162.68 190.371 163.28C189.579 163.868 188.595 164.162 187.419 164.162C186.483 164.162 185.643 163.952 184.899 163.532C184.167 163.112 183.591 162.518 183.171 161.75C182.751 160.97 182.541 160.07 182.541 159.05C182.541 158.03 182.745 157.136 183.153 156.368C183.561 155.6 184.131 155.012 184.863 154.604C185.607 154.184 186.459 153.974 187.419 153.974C188.355 153.974 189.183 154.178 189.903 154.586C190.623 154.994 191.175 155.558 191.559 156.278C191.955 156.986 192.153 157.79 192.153 158.69ZM190.461 158.348C190.461 157.724 190.323 157.19 190.047 156.746C189.771 156.29 189.393 155.948 188.913 155.72C188.445 155.48 187.923 155.36 187.347 155.36C186.519 155.36 185.811 155.624 185.223 156.152C184.647 156.68 184.317 157.412 184.233 158.348H190.461ZM199.121 153.956C200.321 153.956 201.293 154.322 202.037 155.054C202.781 155.774 203.153 156.818 203.153 158.186V164H201.533V158.42C201.533 157.436 201.287 156.686 200.795 156.17C200.303 155.642 199.631 155.378 198.779 155.378C197.915 155.378 197.225 155.648 196.709 156.188C196.205 156.728 195.953 157.514 195.953 158.546V164H194.315V154.136H195.953V155.54C196.277 155.036 196.715 154.646 197.267 154.37C197.831 154.094 198.449 153.956 199.121 153.956ZM205.216 159.05C205.216 158.03 205.42 157.142 205.828 156.386C206.236 155.618 206.8 155.024 207.52 154.604C208.252 154.184 209.086 153.974 210.022 153.974C211.234 153.974 212.23 154.268 213.01 154.856C213.802 155.444 214.324 156.26 214.576 157.304H212.812C212.644 156.704 212.314 156.23 211.822 155.882C211.342 155.534 210.742 155.36 210.022 155.36C209.086 155.36 208.33 155.684 207.754 156.332C207.178 156.968 206.89 157.874 206.89 159.05C206.89 160.238 207.178 161.156 207.754 161.804C208.33 162.452 209.086 162.776 210.022 162.776C210.742 162.776 211.342 162.608 211.822 162.272C212.302 161.936 212.632 161.456 212.812 160.832H214.576C214.312 161.84 213.784 162.65 212.992 163.262C212.2 163.862 211.21 164.162 210.022 164.162C209.086 164.162 208.252 163.952 207.52 163.532C206.8 163.112 206.236 162.518 205.828 161.75C205.42 160.982 205.216 160.082 205.216 159.05ZM225.762 158.69C225.762 159.002 225.744 159.332 225.708 159.68H217.824C217.884 160.652 218.214 161.414 218.814 161.966C219.426 162.506 220.164 162.776 221.028 162.776C221.736 162.776 222.324 162.614 222.792 162.29C223.272 161.954 223.608 161.51 223.8 160.958H225.564C225.3 161.906 224.772 162.68 223.98 163.28C223.188 163.868 222.204 164.162 221.028 164.162C220.092 164.162 219.252 163.952 218.508 163.532C217.776 163.112 217.2 162.518 216.78 161.75C216.36 160.97 216.15 160.07 216.15 159.05C216.15 158.03 216.354 157.136 216.762 156.368C217.17 155.6 217.74 155.012 218.472 154.604C219.216 154.184 220.068 153.974 221.028 153.974C221.964 153.974 222.792 154.178 223.512 154.586C224.232 154.994 224.784 155.558 225.168 156.278C225.564 156.986 225.762 157.79 225.762 158.69ZM224.07 158.348C224.07 157.724 223.932 157.19 223.656 156.746C223.38 156.29 223.002 155.948 222.522 155.72C222.054 155.48 221.532 155.36 220.956 155.36C220.128 155.36 219.42 155.624 218.832 156.152C218.256 156.68 217.926 157.412 217.842 158.348H224.07Z" fill="white"/>
<path d="M51.2919 223.24V213.7H67.9119V257.5H57.2319V223.24H51.2919ZM74.9305 235C74.9305 228.12 76.2505 222.7 78.8905 218.74C81.5705 214.78 85.8705 212.8 91.7905 212.8C97.7105 212.8 101.99 214.78 104.63 218.74C107.31 222.7 108.65 228.12 108.65 235C108.65 241.96 107.31 247.42 104.63 251.38C101.99 255.34 97.7105 257.32 91.7905 257.32C85.8705 257.32 81.5705 255.34 78.8905 251.38C76.2505 247.42 74.9305 241.96 74.9305 235ZM98.5705 235C98.5705 230.96 98.1305 227.86 97.2505 225.7C96.3705 223.5 94.5505 222.4 91.7905 222.4C89.0305 222.4 87.2105 223.5 86.3305 225.7C85.4505 227.86 85.0105 230.96 85.0105 235C85.0105 237.72 85.1705 239.98 85.4905 241.78C85.8105 243.54 86.4505 244.98 87.4105 246.1C88.4105 247.18 89.8705 247.72 91.7905 247.72C93.7105 247.72 95.1505 247.18 96.1105 246.1C97.1105 244.98 97.7705 243.54 98.0905 241.78C98.4105 239.98 98.5705 237.72 98.5705 235ZM114.071 235C114.071 228.12 115.391 222.7 118.031 218.74C120.711 214.78 125.011 212.8 130.931 212.8C136.851 212.8 141.131 214.78 143.771 218.74C146.451 222.7 147.791 228.12 147.791 235C147.791 241.96 146.451 247.42 143.771 251.38C141.131 255.34 136.851 257.32 130.931 257.32C125.011 257.32 120.711 255.34 118.031 251.38C115.391 247.42 114.071 241.96 114.071 235ZM137.711 235C137.711 230.96 137.271 227.86 136.391 225.7C135.511 223.5 133.691 222.4 130.931 222.4C128.171 222.4 126.351 223.5 125.471 225.7C124.591 227.86 124.151 230.96 124.151 235C124.151 237.72 124.311 239.98 124.631 241.78C124.951 243.54 125.591 244.98 126.551 246.1C127.551 247.18 129.011 247.72 130.931 247.72C132.851 247.72 134.291 247.18 135.251 246.1C136.251 244.98 136.911 243.54 137.231 241.78C137.551 239.98 137.711 237.72 137.711 235ZM153.212 235C153.212 228.12 154.532 222.7 157.172 218.74C159.852 214.78 164.152 212.8 170.072 212.8C175.992 212.8 180.272 214.78 182.912 218.74C185.592 222.7 186.932 228.12 186.932 235C186.932 241.96 185.592 247.42 182.912 251.38C180.272 255.34 175.992 257.32 170.072 257.32C164.152 257.32 159.852 255.34 157.172 251.38C154.532 247.42 153.212 241.96 153.212 235ZM176.852 235C176.852 230.96 176.412 227.86 175.532 225.7C174.652 223.5 172.832 222.4 170.072 222.4C167.312 222.4 165.492 223.5 164.612 225.7C163.732 227.86 163.292 230.96 163.292 235C163.292 237.72 163.452 239.98 163.772 241.78C164.092 243.54 164.732 244.98 165.692 246.1C166.692 247.18 168.152 247.72 170.072 247.72C171.992 247.72 173.432 247.18 174.392 246.1C175.392 244.98 176.052 243.54 176.372 241.78C176.692 239.98 176.852 237.72 176.852 235ZM223.792 241.12H213.352V251.8H203.632V241.12H193.192V231.94H203.632V221.2H213.352V231.94H223.792V241.12Z" fill="#33FF00"/>
<path d="M72.4605 290.454V291.786H69.0405V303H67.4025V291.786H63.9645V290.454H72.4605ZM73.8648 298.032C73.8648 297.024 74.0688 296.142 74.4768 295.386C74.8848 294.618 75.4428 294.024 76.1508 293.604C76.8708 293.184 77.6688 292.974 78.5448 292.974C79.4088 292.974 80.1588 293.16 80.7948 293.532C81.4308 293.904 81.9048 294.372 82.2168 294.936V293.136H83.8728V303H82.2168V301.164C81.8928 301.74 81.4068 302.22 80.7588 302.604C80.1228 302.976 79.3788 303.162 78.5268 303.162C77.6508 303.162 76.8588 302.946 76.1508 302.514C75.4428 302.082 74.8848 301.476 74.4768 300.696C74.0688 299.916 73.8648 299.028 73.8648 298.032ZM82.2168 298.05C82.2168 297.306 82.0668 296.658 81.7668 296.106C81.4668 295.554 81.0588 295.134 80.5428 294.846C80.0388 294.546 79.4808 294.396 78.8688 294.396C78.2568 294.396 77.6988 294.54 77.1948 294.828C76.6908 295.116 76.2888 295.536 75.9888 296.088C75.6888 296.64 75.5388 297.288 75.5388 298.032C75.5388 298.788 75.6888 299.448 75.9888 300.012C76.2888 300.564 76.6908 300.99 77.1948 301.29C77.6988 301.578 78.2568 301.722 78.8688 301.722C79.4808 301.722 80.0388 301.578 80.5428 301.29C81.0588 300.99 81.4668 300.564 81.7668 300.012C82.0668 299.448 82.2168 298.794 82.2168 298.05ZM87.4869 291.534C87.1749 291.534 86.9109 291.426 86.6949 291.21C86.4789 290.994 86.3709 290.73 86.3709 290.418C86.3709 290.106 86.4789 289.842 86.6949 289.626C86.9109 289.41 87.1749 289.302 87.4869 289.302C87.7869 289.302 88.0389 289.41 88.2429 289.626C88.4589 289.842 88.5669 290.106 88.5669 290.418C88.5669 290.73 88.4589 290.994 88.2429 291.21C88.0389 291.426 87.7869 291.534 87.4869 291.534ZM88.2789 293.136V303H86.6409V293.136H88.2789ZM92.7086 289.68V303H91.0706V289.68H92.7086ZM99.8023 303.162C98.8783 303.162 98.0383 302.952 97.2823 302.532C96.5383 302.112 95.9503 301.518 95.5183 300.75C95.0983 299.97 94.8883 299.07 94.8883 298.05C94.8883 297.042 95.1043 296.154 95.5363 295.386C95.9803 294.606 96.5803 294.012 97.3363 293.604C98.0923 293.184 98.9383 292.974 99.8743 292.974C100.81 292.974 101.656 293.184 102.412 293.604C103.168 294.012 103.762 294.6 104.194 295.368C104.638 296.136 104.86 297.03 104.86 298.05C104.86 299.07 104.632 299.97 104.176 300.75C103.732 301.518 103.126 302.112 102.358 302.532C101.59 302.952 100.738 303.162 99.8023 303.162ZM99.8023 301.722C100.39 301.722 100.942 301.584 101.458 301.308C101.974 301.032 102.388 300.618 102.7 300.066C103.024 299.514 103.186 298.842 103.186 298.05C103.186 297.258 103.03 296.586 102.718 296.034C102.406 295.482 101.998 295.074 101.494 294.81C100.99 294.534 100.444 294.396 99.8563 294.396C99.2563 294.396 98.7043 294.534 98.2003 294.81C97.7083 295.074 97.3123 295.482 97.0123 296.034C96.7123 296.586 96.5623 297.258 96.5623 298.05C96.5623 298.854 96.7063 299.532 96.9943 300.084C97.2943 300.636 97.6903 301.05 98.1823 301.326C98.6743 301.59 99.2143 301.722 99.8023 301.722ZM108.652 294.738C108.94 294.174 109.348 293.736 109.876 293.424C110.416 293.112 111.07 292.956 111.838 292.956V294.648H111.406C109.57 294.648 108.652 295.644 108.652 297.636V303H107.014V293.136H108.652V294.738ZM122.729 297.69C122.729 298.002 122.711 298.332 122.675 298.68H114.791C114.851 299.652 115.181 300.414 115.781 300.966C116.393 301.506 117.131 301.776 117.995 301.776C118.703 301.776 119.291 301.614 119.759 301.29C120.239 300.954 120.575 300.51 120.767 299.958H122.531C122.267 300.906 121.739 301.68 120.947 302.28C120.155 302.868 119.171 303.162 117.995 303.162C117.059 303.162 116.219 302.952 115.475 302.532C114.743 302.112 114.167 301.518 113.747 300.75C113.327 299.97 113.117 299.07 113.117 298.05C113.117 297.03 113.321 296.136 113.729 295.368C114.137 294.6 114.707 294.012 115.439 293.604C116.183 293.184 117.035 292.974 117.995 292.974C118.931 292.974 119.759 293.178 120.479 293.586C121.199 293.994 121.751 294.558 122.135 295.278C122.531 295.986 122.729 296.79 122.729 297.69ZM121.037 297.348C121.037 296.724 120.899 296.19 120.623 295.746C120.347 295.29 119.969 294.948 119.489 294.72C119.021 294.48 118.499 294.36 117.923 294.36C117.095 294.36 116.387 294.624 115.799 295.152C115.223 295.68 114.893 296.412 114.809 297.348H121.037ZM124.279 298.032C124.279 297.024 124.483 296.142 124.891 295.386C125.299 294.618 125.857 294.024 126.565 293.604C127.285 293.184 128.089 292.974 128.977 292.974C129.745 292.974 130.459 293.154 131.119 293.514C131.779 293.862 132.283 294.324 132.631 294.9V289.68H134.287V303H132.631V301.146C132.307 301.734 131.827 302.22 131.191 302.604C130.555 302.976 129.811 303.162 128.959 303.162C128.083 303.162 127.285 302.946 126.565 302.514C125.857 302.082 125.299 301.476 124.891 300.696C124.483 299.916 124.279 299.028 124.279 298.032ZM132.631 298.05C132.631 297.306 132.481 296.658 132.181 296.106C131.881 295.554 131.473 295.134 130.957 294.846C130.453 294.546 129.895 294.396 129.283 294.396C128.671 294.396 128.113 294.54 127.609 294.828C127.105 295.116 126.703 295.536 126.403 296.088C126.103 296.64 125.953 297.288 125.953 298.032C125.953 298.788 126.103 299.448 126.403 300.012C126.703 300.564 127.105 300.99 127.609 301.29C128.113 301.578 128.671 301.722 129.283 301.722C129.895 301.722 130.453 301.578 130.957 301.29C131.473 300.99 131.881 300.564 132.181 300.012C132.481 299.448 132.631 298.794 132.631 298.05ZM151.52 290.454V303H149.882V297.312H143.492V303H141.854V290.454H143.492V295.962H149.882V290.454H151.52ZM153.705 298.032C153.705 297.024 153.909 296.142 154.317 295.386C154.725 294.618 155.283 294.024 155.991 293.604C156.711 293.184 157.509 292.974 158.385 292.974C159.249 292.974 159.999 293.16 160.635 293.532C161.271 293.904 161.745 294.372 162.057 294.936V293.136H163.713V303H162.057V301.164C161.733 301.74 161.247 302.22 160.599 302.604C159.963 302.976 159.219 303.162 158.367 303.162C157.491 303.162 156.699 302.946 155.991 302.514C155.283 302.082 154.725 301.476 154.317 300.696C153.909 299.916 153.705 299.028 153.705 298.032ZM162.057 298.05C162.057 297.306 161.907 296.658 161.607 296.106C161.307 295.554 160.899 295.134 160.383 294.846C159.879 294.546 159.321 294.396 158.709 294.396C158.097 294.396 157.539 294.54 157.035 294.828C156.531 295.116 156.129 295.536 155.829 296.088C155.529 296.64 155.379 297.288 155.379 298.032C155.379 298.788 155.529 299.448 155.829 300.012C156.129 300.564 156.531 300.99 157.035 301.29C157.539 301.578 158.097 301.722 158.709 301.722C159.321 301.722 159.879 301.578 160.383 301.29C160.899 300.99 161.307 300.564 161.607 300.012C161.907 299.448 162.057 298.794 162.057 298.05ZM167.327 291.534C167.015 291.534 166.751 291.426 166.535 291.21C166.319 290.994 166.211 290.73 166.211 290.418C166.211 290.106 166.319 289.842 166.535 289.626C166.751 289.41 167.015 289.302 167.327 289.302C167.627 289.302 167.879 289.41 168.083 289.626C168.299 289.842 168.407 290.106 168.407 290.418C168.407 290.73 168.299 290.994 168.083 291.21C167.879 291.426 167.627 291.534 167.327 291.534ZM168.119 293.136V303H166.481V293.136H168.119ZM172.548 294.738C172.836 294.174 173.244 293.736 173.772 293.424C174.312 293.112 174.966 292.956 175.734 292.956V294.648H175.302C173.466 294.648 172.548 295.644 172.548 297.636V303H170.91V293.136H172.548V294.738ZM177.013 298.05C177.013 297.03 177.217 296.142 177.625 295.386C178.033 294.618 178.597 294.024 179.317 293.604C180.049 293.184 180.883 292.974 181.819 292.974C183.031 292.974 184.027 293.268 184.807 293.856C185.599 294.444 186.121 295.26 186.373 296.304H184.609C184.441 295.704 184.111 295.23 183.619 294.882C183.139 294.534 182.539 294.36 181.819 294.36C180.883 294.36 180.127 294.684 179.551 295.332C178.975 295.968 178.687 296.874 178.687 298.05C178.687 299.238 178.975 300.156 179.551 300.804C180.127 301.452 180.883 301.776 181.819 301.776C182.539 301.776 183.139 301.608 183.619 301.272C184.099 300.936 184.429 300.456 184.609 299.832H186.373C186.109 300.84 185.581 301.65 184.789 302.262C183.997 302.862 183.007 303.162 181.819 303.162C180.883 303.162 180.049 302.952 179.317 302.532C178.597 302.112 178.033 301.518 177.625 300.75C177.217 299.982 177.013 299.082 177.013 298.05ZM197.307 293.136V303H195.669V301.542C195.357 302.046 194.919 302.442 194.355 302.73C193.803 303.006 193.191 303.144 192.519 303.144C191.751 303.144 191.061 302.988 190.449 302.676C189.837 302.352 189.351 301.872 188.991 301.236C188.643 300.6 188.469 299.826 188.469 298.914V293.136H190.089V298.698C190.089 299.67 190.335 300.42 190.827 300.948C191.319 301.464 191.991 301.722 192.843 301.722C193.719 301.722 194.409 301.452 194.913 300.912C195.417 300.372 195.669 299.586 195.669 298.554V293.136H197.307ZM202.071 294.486V300.3C202.071 300.78 202.173 301.122 202.377 301.326C202.581 301.518 202.935 301.614 203.439 301.614H204.645V303H203.169C202.257 303 201.573 302.79 201.117 302.37C200.661 301.95 200.433 301.26 200.433 300.3V294.486H199.155V293.136H200.433V290.652H202.071V293.136H204.645V294.486H202.071ZM210.121 303.162C209.365 303.162 208.687 303.036 208.087 302.784C207.487 302.52 207.013 302.16 206.665 301.704C206.317 301.236 206.125 300.702 206.089 300.102H207.781C207.829 300.594 208.057 300.996 208.465 301.308C208.885 301.62 209.431 301.776 210.103 301.776C210.727 301.776 211.219 301.638 211.579 301.362C211.939 301.086 212.119 300.738 212.119 300.318C212.119 299.886 211.927 299.568 211.543 299.364C211.159 299.148 210.565 298.938 209.761 298.734C209.029 298.542 208.429 298.35 207.961 298.158C207.505 297.954 207.109 297.66 206.773 297.276C206.449 296.88 206.287 296.364 206.287 295.728C206.287 295.224 206.437 294.762 206.737 294.342C207.037 293.922 207.463 293.592 208.015 293.352C208.567 293.1 209.197 292.974 209.905 292.974C210.997 292.974 211.879 293.25 212.551 293.802C213.223 294.354 213.583 295.11 213.631 296.07H211.993C211.957 295.554 211.747 295.14 211.363 294.828C210.991 294.516 210.487 294.36 209.851 294.36C209.263 294.36 208.795 294.486 208.447 294.738C208.099 294.99 207.925 295.32 207.925 295.728C207.925 296.052 208.027 296.322 208.231 296.538C208.447 296.742 208.711 296.91 209.023 297.042C209.347 297.162 209.791 297.3 210.355 297.456C211.063 297.648 211.639 297.84 212.083 298.032C212.527 298.212 212.905 298.488 213.217 298.86C213.541 299.232 213.709 299.718 213.721 300.318C213.721 300.858 213.571 301.344 213.271 301.776C212.971 302.208 212.545 302.55 211.993 302.802C211.453 303.042 210.829 303.162 210.121 303.162Z" fill="white"/>
<path d="M360.85 87.02C360.53 85.54 359.97 84.44 359.17 83.72C358.37 82.96 357.23 82.58 355.75 82.58C353.47 82.58 351.83 83.58 350.83 85.58C349.83 87.54 349.31 90.66 349.27 94.94C350.15 93.54 351.41 92.44 353.05 91.64C354.73 90.84 356.57 90.44 358.57 90.44C362.49 90.44 365.63 91.68 367.99 94.16C370.39 96.64 371.59 100.1 371.59 104.54C371.59 107.46 370.99 110.02 369.79 112.22C368.63 114.42 366.91 116.14 364.63 117.38C362.39 118.62 359.73 119.24 356.65 119.24C350.49 119.24 346.21 117.32 343.81 113.48C341.41 109.6 340.21 104.04 340.21 96.8C340.21 89.2 341.47 83.56 343.99 79.88C346.55 76.16 350.63 74.3 356.23 74.3C359.23 74.3 361.75 74.9 363.79 76.1C365.87 77.26 367.43 78.8 368.47 80.72C369.55 82.64 370.19 84.74 370.39 87.02H360.85ZM356.11 98.54C354.39 98.54 352.95 99.06 351.79 100.1C350.67 101.1 350.11 102.54 350.11 104.42C350.11 106.34 350.63 107.84 351.67 108.92C352.75 110 354.27 110.54 356.23 110.54C357.99 110.54 359.37 110.02 360.37 108.98C361.41 107.9 361.93 106.44 361.93 104.6C361.93 102.72 361.43 101.24 360.43 100.16C359.43 99.08 357.99 98.54 356.11 98.54ZM377.393 96.5C377.393 89.62 378.713 84.2 381.353 80.24C384.033 76.28 388.333 74.3 394.253 74.3C400.173 74.3 404.453 76.28 407.093 80.24C409.773 84.2 411.113 89.62 411.113 96.5C411.113 103.46 409.773 108.92 407.093 112.88C404.453 116.84 400.173 118.82 394.253 118.82C388.333 118.82 384.033 116.84 381.353 112.88C378.713 108.92 377.393 103.46 377.393 96.5ZM401.033 96.5C401.033 92.46 400.593 89.36 399.713 87.2C398.833 85 397.013 83.9 394.253 83.9C391.493 83.9 389.673 85 388.793 87.2C387.913 89.36 387.473 92.46 387.473 96.5C387.473 99.22 387.633 101.48 387.953 103.28C388.273 105.04 388.913 106.48 389.873 107.6C390.873 108.68 392.333 109.22 394.253 109.22C396.173 109.22 397.613 108.68 398.573 107.6C399.573 106.48 400.233 105.04 400.553 103.28C400.873 101.48 401.033 99.22 401.033 96.5ZM447.974 102.62H437.534V113.3H427.814V102.62H417.374V93.44H427.814V82.7H437.534V93.44H447.974V102.62Z" fill="#33FF00"/>
<path d="M323.147 151.454V164H321.509V158.312H315.119V164H313.481V151.454H315.119V156.962H321.509V151.454H323.147ZM325.332 159.032C325.332 158.024 325.536 157.142 325.944 156.386C326.352 155.618 326.91 155.024 327.618 154.604C328.338 154.184 329.136 153.974 330.012 153.974C330.876 153.974 331.626 154.16 332.262 154.532C332.898 154.904 333.372 155.372 333.684 155.936V154.136H335.34V164H333.684V162.164C333.36 162.74 332.874 163.22 332.226 163.604C331.59 163.976 330.846 164.162 329.994 164.162C329.118 164.162 328.326 163.946 327.618 163.514C326.91 163.082 326.352 162.476 325.944 161.696C325.536 160.916 325.332 160.028 325.332 159.032ZM333.684 159.05C333.684 158.306 333.534 157.658 333.234 157.106C332.934 156.554 332.526 156.134 332.01 155.846C331.506 155.546 330.948 155.396 330.336 155.396C329.724 155.396 329.166 155.54 328.662 155.828C328.158 156.116 327.756 156.536 327.456 157.088C327.156 157.64 327.006 158.288 327.006 159.032C327.006 159.788 327.156 160.448 327.456 161.012C327.756 161.564 328.158 161.99 328.662 162.29C329.166 162.578 329.724 162.722 330.336 162.722C330.948 162.722 331.506 162.578 332.01 162.29C332.526 161.99 332.934 161.564 333.234 161.012C333.534 160.448 333.684 159.794 333.684 159.05ZM338.954 152.534C338.642 152.534 338.378 152.426 338.162 152.21C337.946 151.994 337.838 151.73 337.838 151.418C337.838 151.106 337.946 150.842 338.162 150.626C338.378 150.41 338.642 150.302 338.954 150.302C339.254 150.302 339.506 150.41 339.71 150.626C339.926 150.842 340.034 151.106 340.034 151.418C340.034 151.73 339.926 151.994 339.71 152.21C339.506 152.426 339.254 152.534 338.954 152.534ZM339.746 154.136V164H338.108V154.136H339.746ZM344.175 155.738C344.463 155.174 344.871 154.736 345.399 154.424C345.939 154.112 346.593 153.956 347.361 153.956V155.648H346.929C345.093 155.648 344.175 156.644 344.175 158.636V164H342.537V154.136H344.175V155.738ZM348.64 159.05C348.64 158.03 348.844 157.142 349.252 156.386C349.66 155.618 350.224 155.024 350.944 154.604C351.676 154.184 352.51 153.974 353.446 153.974C354.658 153.974 355.654 154.268 356.434 154.856C357.226 155.444 357.748 156.26 358 157.304H356.236C356.068 156.704 355.738 156.23 355.246 155.882C354.766 155.534 354.166 155.36 353.446 155.36C352.51 155.36 351.754 155.684 351.178 156.332C350.602 156.968 350.314 157.874 350.314 159.05C350.314 160.238 350.602 161.156 351.178 161.804C351.754 162.452 352.51 162.776 353.446 162.776C354.166 162.776 354.766 162.608 355.246 162.272C355.726 161.936 356.056 161.456 356.236 160.832H358C357.736 161.84 357.208 162.65 356.416 163.262C355.624 163.862 354.634 164.162 353.446 164.162C352.51 164.162 351.676 163.952 350.944 163.532C350.224 163.112 349.66 162.518 349.252 161.75C348.844 160.982 348.64 160.082 348.64 159.05ZM368.934 154.136V164H367.296V162.542C366.984 163.046 366.546 163.442 365.982 163.73C365.43 164.006 364.818 164.144 364.146 164.144C363.378 164.144 362.688 163.988 362.076 163.676C361.464 163.352 360.978 162.872 360.618 162.236C360.27 161.6 360.096 160.826 360.096 159.914V154.136H361.716V159.698C361.716 160.67 361.962 161.42 362.454 161.948C362.946 162.464 363.618 162.722 364.47 162.722C365.346 162.722 366.036 162.452 366.54 161.912C367.044 161.372 367.296 160.586 367.296 159.554V154.136H368.934ZM373.697 155.486V161.3C373.697 161.78 373.799 162.122 374.003 162.326C374.207 162.518 374.561 162.614 375.065 162.614H376.271V164H374.795C373.883 164 373.199 163.79 372.743 163.37C372.287 162.95 372.059 162.26 372.059 161.3V155.486H370.781V154.136H372.059V151.652H373.697V154.136H376.271V155.486H373.697ZM381.748 164.162C380.992 164.162 380.314 164.036 379.714 163.784C379.114 163.52 378.64 163.16 378.292 162.704C377.944 162.236 377.752 161.702 377.716 161.102H379.408C379.456 161.594 379.684 161.996 380.092 162.308C380.512 162.62 381.058 162.776 381.73 162.776C382.354 162.776 382.846 162.638 383.206 162.362C383.566 162.086 383.746 161.738 383.746 161.318C383.746 160.886 383.554 160.568 383.17 160.364C382.786 160.148 382.192 159.938 381.388 159.734C380.656 159.542 380.056 159.35 379.588 159.158C379.132 158.954 378.736 158.66 378.4 158.276C378.076 157.88 377.914 157.364 377.914 156.728C377.914 156.224 378.064 155.762 378.364 155.342C378.664 154.922 379.09 154.592 379.642 154.352C380.194 154.1 380.824 153.974 381.532 153.974C382.624 153.974 383.506 154.25 384.178 154.802C384.85 155.354 385.21 156.11 385.258 157.07H383.62C383.584 156.554 383.374 156.14 382.99 155.828C382.618 155.516 382.114 155.36 381.478 155.36C380.89 155.36 380.422 155.486 380.074 155.738C379.726 155.99 379.552 156.32 379.552 156.728C379.552 157.052 379.654 157.322 379.858 157.538C380.074 157.742 380.338 157.91 380.65 158.042C380.974 158.162 381.418 158.3 381.982 158.456C382.69 158.648 383.266 158.84 383.71 159.032C384.154 159.212 384.532 159.488 384.844 159.86C385.168 160.232 385.336 160.718 385.348 161.318C385.348 161.858 385.198 162.344 384.898 162.776C384.598 163.208 384.172 163.55 383.62 163.802C383.08 164.042 382.456 164.162 381.748 164.162ZM405.185 151.544V164H403.547V154.712L399.407 164H398.255L394.097 154.694V164H392.459V151.544H394.223L398.831 161.84L403.439 151.544H405.185ZM407.351 159.032C407.351 158.024 407.555 157.142 407.963 156.386C408.371 155.618 408.929 155.024 409.637 154.604C410.357 154.184 411.155 153.974 412.031 153.974C412.895 153.974 413.645 154.16 414.281 154.532C414.917 154.904 415.391 155.372 415.703 155.936V154.136H417.359V164H415.703V162.164C415.379 162.74 414.893 163.22 414.245 163.604C413.609 163.976 412.865 164.162 412.013 164.162C411.137 164.162 410.345 163.946 409.637 163.514C408.929 163.082 408.371 162.476 407.963 161.696C407.555 160.916 407.351 160.028 407.351 159.032ZM415.703 159.05C415.703 158.306 415.553 157.658 415.253 157.106C414.953 156.554 414.545 156.134 414.029 155.846C413.525 155.546 412.967 155.396 412.355 155.396C411.743 155.396 411.185 155.54 410.681 155.828C410.177 156.116 409.775 156.536 409.475 157.088C409.175 157.64 409.025 158.288 409.025 159.032C409.025 159.788 409.175 160.448 409.475 161.012C409.775 161.564 410.177 161.99 410.681 162.29C411.185 162.578 411.743 162.722 412.355 162.722C412.967 162.722 413.525 162.578 414.029 162.29C414.545 161.99 414.953 161.564 415.253 161.012C415.553 160.448 415.703 159.794 415.703 159.05ZM423.619 164.162C422.863 164.162 422.185 164.036 421.585 163.784C420.985 163.52 420.511 163.16 420.163 162.704C419.815 162.236 419.623 161.702 419.587 161.102H421.279C421.327 161.594 421.555 161.996 421.963 162.308C422.383 162.62 422.929 162.776 423.601 162.776C424.225 162.776 424.717 162.638 425.077 162.362C425.437 162.086 425.617 161.738 425.617 161.318C425.617 160.886 425.425 160.568 425.041 160.364C424.657 160.148 424.063 159.938 423.259 159.734C422.527 159.542 421.927 159.35 421.459 159.158C421.003 158.954 420.607 158.66 420.271 158.276C419.947 157.88 419.785 157.364 419.785 156.728C419.785 156.224 419.935 155.762 420.235 155.342C420.535 154.922 420.961 154.592 421.513 154.352C422.065 154.1 422.695 153.974 423.403 153.974C424.495 153.974 425.377 154.25 426.049 154.802C426.721 155.354 427.081 156.11 427.129 157.07H425.491C425.455 156.554 425.245 156.14 424.861 155.828C424.489 155.516 423.985 155.36 423.349 155.36C422.761 155.36 422.293 155.486 421.945 155.738C421.597 155.99 421.423 156.32 421.423 156.728C421.423 157.052 421.525 157.322 421.729 157.538C421.945 157.742 422.209 157.91 422.521 158.042C422.845 158.162 423.289 158.3 423.853 158.456C424.561 158.648 425.137 158.84 425.581 159.032C426.025 159.212 426.403 159.488 426.715 159.86C427.039 160.232 427.207 160.718 427.219 161.318C427.219 161.858 427.069 162.344 426.769 162.776C426.469 163.208 426.043 163.55 425.491 163.802C424.951 164.042 424.327 164.162 423.619 164.162ZM431.53 155.486V161.3C431.53 161.78 431.632 162.122 431.836 162.326C432.04 162.518 432.394 162.614 432.898 162.614H434.104V164H432.628C431.716 164 431.032 163.79 430.576 163.37C430.12 162.95 429.892 162.26 429.892 161.3V155.486H428.614V154.136H429.892V151.652H431.53V154.136H434.104V155.486H431.53ZM445.088 158.69C445.088 159.002 445.07 159.332 445.034 159.68H437.15C437.21 160.652 437.54 161.414 438.14 161.966C438.752 162.506 439.49 162.776 440.354 162.776C441.062 162.776 441.65 162.614 442.118 162.29C442.598 161.954 442.934 161.51 443.126 160.958H444.89C444.626 161.906 444.098 162.68 443.306 163.28C442.514 163.868 441.53 164.162 440.354 164.162C439.418 164.162 438.578 163.952 437.834 163.532C437.102 163.112 436.526 162.518 436.106 161.75C435.686 160.97 435.476 160.07 435.476 159.05C435.476 158.03 435.68 157.136 436.088 156.368C436.496 155.6 437.066 155.012 437.798 154.604C438.542 154.184 439.394 153.974 440.354 153.974C441.29 153.974 442.118 154.178 442.838 154.586C443.558 154.994 444.11 155.558 444.494 156.278C444.89 156.986 445.088 157.79 445.088 158.69ZM443.396 158.348C443.396 157.724 443.258 157.19 442.982 156.746C442.706 156.29 442.328 155.948 441.848 155.72C441.38 155.48 440.858 155.36 440.282 155.36C439.454 155.36 438.746 155.624 438.158 156.152C437.582 156.68 437.252 157.412 437.168 158.348H443.396ZM448.888 155.738C449.176 155.174 449.584 154.736 450.112 154.424C450.652 154.112 451.306 153.956 452.074 153.956V155.648H451.642C449.806 155.648 448.888 156.644 448.888 158.636V164H447.25V154.136H448.888V155.738ZM462.965 158.69C462.965 159.002 462.947 159.332 462.911 159.68H455.027C455.087 160.652 455.417 161.414 456.017 161.966C456.629 162.506 457.367 162.776 458.231 162.776C458.939 162.776 459.527 162.614 459.995 162.29C460.475 161.954 460.811 161.51 461.003 160.958H462.767C462.503 161.906 461.975 162.68 461.183 163.28C460.391 163.868 459.407 164.162 458.231 164.162C457.295 164.162 456.455 163.952 455.711 163.532C454.979 163.112 454.403 162.518 453.983 161.75C453.563 160.97 453.353 160.07 453.353 159.05C453.353 158.03 453.557 157.136 453.965 156.368C454.373 155.6 454.943 155.012 455.675 154.604C456.419 154.184 457.271 153.974 458.231 153.974C459.167 153.974 459.995 154.178 460.715 154.586C461.435 154.994 461.987 155.558 462.371 156.278C462.767 156.986 462.965 157.79 462.965 158.69ZM461.273 158.348C461.273 157.724 461.135 157.19 460.859 156.746C460.583 156.29 460.205 155.948 459.725 155.72C459.257 155.48 458.735 155.36 458.159 155.36C457.331 155.36 456.623 155.624 456.035 156.152C455.459 156.68 455.129 157.412 455.045 158.348H461.273ZM464.515 159.032C464.515 158.024 464.719 157.142 465.127 156.386C465.535 155.618 466.093 155.024 466.801 154.604C467.521 154.184 468.325 153.974 469.213 153.974C469.981 153.974 470.695 154.154 471.355 154.514C472.015 154.862 472.519 155.324 472.867 155.9V150.68H474.523V164H472.867V162.146C472.543 162.734 472.063 163.22 471.427 163.604C470.791 163.976 470.047 164.162 469.195 164.162C468.319 164.162 467.521 163.946 466.801 163.514C466.093 163.082 465.535 162.476 465.127 161.696C464.719 160.916 464.515 160.028 464.515 159.032ZM472.867 159.05C472.867 158.306 472.717 157.658 472.417 157.106C472.117 156.554 471.709 156.134 471.193 155.846C470.689 155.546 470.131 155.396 469.519 155.396C468.907 155.396 468.349 155.54 467.845 155.828C467.341 156.116 466.939 156.536 466.639 157.088C466.339 157.64 466.189 158.288 466.189 159.032C466.189 159.788 466.339 160.448 466.639 161.012C466.939 161.564 467.341 161.99 467.845 162.29C468.349 162.578 468.907 162.722 469.519 162.722C470.131 162.722 470.689 162.578 471.193 162.29C471.709 161.99 472.117 161.564 472.417 161.012C472.717 160.448 472.867 159.794 472.867 159.05Z" fill="white"/>
<path d="M319.097 223.74V214.2H335.717V258H325.037V223.74H319.097ZM342.735 235.5C342.735 228.62 344.055 223.2 346.695 219.24C349.375 215.28 353.675 213.3 359.595 213.3C365.515 213.3 369.795 215.28 372.435 219.24C375.115 223.2 376.455 228.62 376.455 235.5C376.455 242.46 375.115 247.92 372.435 251.88C369.795 255.84 365.515 257.82 359.595 257.82C353.675 257.82 349.375 255.84 346.695 251.88C344.055 247.92 342.735 242.46 342.735 235.5ZM366.375 235.5C366.375 231.46 365.935 228.36 365.055 226.2C364.175 224 362.355 222.9 359.595 222.9C356.835 222.9 355.015 224 354.135 226.2C353.255 228.36 352.815 231.46 352.815 235.5C352.815 238.22 352.975 240.48 353.295 242.28C353.615 244.04 354.255 245.48 355.215 246.6C356.215 247.68 357.675 248.22 359.595 248.22C361.515 248.22 362.955 247.68 363.915 246.6C364.915 245.48 365.575 244.04 365.895 242.28C366.215 240.48 366.375 238.22 366.375 235.5ZM381.876 235.5C381.876 228.62 383.196 223.2 385.836 219.24C388.516 215.28 392.816 213.3 398.736 213.3C404.656 213.3 408.936 215.28 411.576 219.24C414.256 223.2 415.596 228.62 415.596 235.5C415.596 242.46 414.256 247.92 411.576 251.88C408.936 255.84 404.656 257.82 398.736 257.82C392.816 257.82 388.516 255.84 385.836 251.88C383.196 247.92 381.876 242.46 381.876 235.5ZM405.516 235.5C405.516 231.46 405.076 228.36 404.196 226.2C403.316 224 401.496 222.9 398.736 222.9C395.976 222.9 394.156 224 393.276 226.2C392.396 228.36 391.956 231.46 391.956 235.5C391.956 238.22 392.116 240.48 392.436 242.28C392.756 244.04 393.396 245.48 394.356 246.6C395.356 247.68 396.816 248.22 398.736 248.22C400.656 248.22 402.096 247.68 403.056 246.6C404.056 245.48 404.716 244.04 405.036 242.28C405.356 240.48 405.516 238.22 405.516 235.5ZM420.176 225.24C420.176 222 421.096 219.5 422.936 217.74C424.816 215.98 427.236 215.1 430.196 215.1C433.156 215.1 435.556 215.98 437.396 217.74C439.236 219.5 440.156 222 440.156 225.24C440.156 228.48 439.236 230.98 437.396 232.74C435.556 234.5 433.156 235.38 430.196 235.38C427.236 235.38 424.816 234.5 422.936 232.74C421.096 230.98 420.176 228.48 420.176 225.24ZM460.916 215.76L437.816 258H427.916L451.016 215.76H460.916ZM430.136 221.1C428.216 221.1 427.256 222.48 427.256 225.24C427.256 227.96 428.216 229.32 430.136 229.32C431.056 229.32 431.776 228.98 432.296 228.3C432.816 227.62 433.076 226.6 433.076 225.24C433.076 222.48 432.096 221.1 430.136 221.1ZM448.736 248.52C448.736 245.28 449.656 242.78 451.496 241.02C453.336 239.26 455.736 238.38 458.696 238.38C461.656 238.38 464.056 239.26 465.896 241.02C467.736 242.78 468.656 245.28 468.656 248.52C468.656 251.76 467.736 254.26 465.896 256.02C464.056 257.78 461.656 258.66 458.696 258.66C455.736 258.66 453.336 257.78 451.496 256.02C449.656 254.26 448.736 251.76 448.736 248.52ZM458.636 244.38C457.716 244.38 456.996 244.72 456.476 245.4C455.996 246.08 455.756 247.12 455.756 248.52C455.756 251.24 456.716 252.6 458.636 252.6C459.556 252.6 460.276 252.26 460.796 251.58C461.316 250.9 461.576 249.88 461.576 248.52C461.576 247.16 461.316 246.14 460.796 245.46C460.276 244.74 459.556 244.38 458.636 244.38Z" fill="#33FF00"/>
<path d="M295.14 296.718C295.14 295.494 295.416 294.396 295.968 293.424C296.52 292.44 297.27 291.672 298.218 291.12C299.178 290.568 300.24 290.292 301.404 290.292C302.772 290.292 303.966 290.622 304.986 291.282C306.006 291.942 306.75 292.878 307.218 294.09H305.256C304.908 293.334 304.404 292.752 303.744 292.344C303.096 291.936 302.316 291.732 301.404 291.732C300.528 291.732 299.742 291.936 299.046 292.344C298.35 292.752 297.804 293.334 297.408 294.09C297.012 294.834 296.814 295.71 296.814 296.718C296.814 297.714 297.012 298.59 297.408 299.346C297.804 300.09 298.35 300.666 299.046 301.074C299.742 301.482 300.528 301.686 301.404 301.686C302.316 301.686 303.096 301.488 303.744 301.092C304.404 300.684 304.908 300.102 305.256 299.346H307.218C306.75 300.546 306.006 301.476 304.986 302.136C303.966 302.784 302.772 303.108 301.404 303.108C300.24 303.108 299.178 302.838 298.218 302.298C297.27 301.746 296.52 300.984 295.968 300.012C295.416 299.04 295.14 297.942 295.14 296.718ZM318.405 293.136V303H316.767V301.542C316.455 302.046 316.017 302.442 315.453 302.73C314.901 303.006 314.289 303.144 313.617 303.144C312.849 303.144 312.159 302.988 311.547 302.676C310.935 302.352 310.449 301.872 310.089 301.236C309.741 300.6 309.567 299.826 309.567 298.914V293.136H311.187V298.698C311.187 299.67 311.433 300.42 311.925 300.948C312.417 301.464 313.089 301.722 313.941 301.722C314.817 301.722 315.507 301.452 316.011 300.912C316.515 300.372 316.767 299.586 316.767 298.554V293.136H318.405ZM324.662 303.162C323.906 303.162 323.228 303.036 322.628 302.784C322.028 302.52 321.554 302.16 321.206 301.704C320.858 301.236 320.666 300.702 320.63 300.102H322.322C322.37 300.594 322.598 300.996 323.006 301.308C323.426 301.62 323.972 301.776 324.644 301.776C325.268 301.776 325.76 301.638 326.12 301.362C326.48 301.086 326.66 300.738 326.66 300.318C326.66 299.886 326.468 299.568 326.084 299.364C325.7 299.148 325.106 298.938 324.302 298.734C323.57 298.542 322.97 298.35 322.502 298.158C322.046 297.954 321.65 297.66 321.314 297.276C320.99 296.88 320.828 296.364 320.828 295.728C320.828 295.224 320.978 294.762 321.278 294.342C321.578 293.922 322.004 293.592 322.556 293.352C323.108 293.1 323.738 292.974 324.446 292.974C325.538 292.974 326.42 293.25 327.092 293.802C327.764 294.354 328.124 295.11 328.172 296.07H326.534C326.498 295.554 326.288 295.14 325.904 294.828C325.532 294.516 325.028 294.36 324.392 294.36C323.804 294.36 323.336 294.486 322.988 294.738C322.64 294.99 322.466 295.32 322.466 295.728C322.466 296.052 322.568 296.322 322.772 296.538C322.988 296.742 323.252 296.91 323.564 297.042C323.888 297.162 324.332 297.3 324.896 297.456C325.604 297.648 326.18 297.84 326.624 298.032C327.068 298.212 327.446 298.488 327.758 298.86C328.082 299.232 328.25 299.718 328.262 300.318C328.262 300.858 328.112 301.344 327.812 301.776C327.512 302.208 327.086 302.55 326.534 302.802C325.994 303.042 325.37 303.162 324.662 303.162ZM332.572 294.486V300.3C332.572 300.78 332.674 301.122 332.878 301.326C333.082 301.518 333.436 301.614 333.94 301.614H335.146V303H333.67C332.758 303 332.074 302.79 331.618 302.37C331.162 301.95 330.934 301.26 330.934 300.3V294.486H329.656V293.136H330.934V290.652H332.572V293.136H335.146V294.486H332.572ZM341.433 303.162C340.509 303.162 339.669 302.952 338.913 302.532C338.169 302.112 337.581 301.518 337.149 300.75C336.729 299.97 336.519 299.07 336.519 298.05C336.519 297.042 336.735 296.154 337.167 295.386C337.611 294.606 338.211 294.012 338.967 293.604C339.723 293.184 340.569 292.974 341.505 292.974C342.441 292.974 343.287 293.184 344.043 293.604C344.799 294.012 345.393 294.6 345.825 295.368C346.269 296.136 346.491 297.03 346.491 298.05C346.491 299.07 346.263 299.97 345.807 300.75C345.363 301.518 344.757 302.112 343.989 302.532C343.221 302.952 342.369 303.162 341.433 303.162ZM341.433 301.722C342.021 301.722 342.573 301.584 343.089 301.308C343.605 301.032 344.019 300.618 344.331 300.066C344.655 299.514 344.817 298.842 344.817 298.05C344.817 297.258 344.661 296.586 344.349 296.034C344.037 295.482 343.629 295.074 343.125 294.81C342.621 294.534 342.075 294.396 341.487 294.396C340.887 294.396 340.335 294.534 339.831 294.81C339.339 295.074 338.943 295.482 338.643 296.034C338.343 296.586 338.193 297.258 338.193 298.05C338.193 298.854 338.337 299.532 338.625 300.084C338.925 300.636 339.321 301.05 339.813 301.326C340.305 301.59 340.845 301.722 341.433 301.722ZM360.507 292.956C361.275 292.956 361.959 293.118 362.559 293.442C363.159 293.754 363.633 294.228 363.981 294.864C364.329 295.5 364.503 296.274 364.503 297.186V303H362.883V297.42C362.883 296.436 362.637 295.686 362.145 295.17C361.665 294.642 361.011 294.378 360.183 294.378C359.331 294.378 358.653 294.654 358.149 295.206C357.645 295.746 357.393 296.532 357.393 297.564V303H355.773V297.42C355.773 296.436 355.527 295.686 355.035 295.17C354.555 294.642 353.901 294.378 353.073 294.378C352.221 294.378 351.543 294.654 351.039 295.206C350.535 295.746 350.283 296.532 350.283 297.564V303H348.645V293.136H350.283V294.558C350.607 294.042 351.039 293.646 351.579 293.37C352.131 293.094 352.737 292.956 353.397 292.956C354.225 292.956 354.957 293.142 355.593 293.514C356.229 293.886 356.703 294.432 357.015 295.152C357.291 294.456 357.747 293.916 358.383 293.532C359.019 293.148 359.727 292.956 360.507 292.956ZM376.19 297.69C376.19 298.002 376.172 298.332 376.136 298.68H368.252C368.312 299.652 368.642 300.414 369.242 300.966C369.854 301.506 370.592 301.776 371.456 301.776C372.164 301.776 372.752 301.614 373.22 301.29C373.7 300.954 374.036 300.51 374.228 299.958H375.992C375.728 300.906 375.2 301.68 374.408 302.28C373.616 302.868 372.632 303.162 371.456 303.162C370.52 303.162 369.68 302.952 368.936 302.532C368.204 302.112 367.628 301.518 367.208 300.75C366.788 299.97 366.578 299.07 366.578 298.05C366.578 297.03 366.782 296.136 367.19 295.368C367.598 294.6 368.168 294.012 368.9 293.604C369.644 293.184 370.496 292.974 371.456 292.974C372.392 292.974 373.22 293.178 373.94 293.586C374.66 293.994 375.212 294.558 375.596 295.278C375.992 295.986 376.19 296.79 376.19 297.69ZM374.498 297.348C374.498 296.724 374.36 296.19 374.084 295.746C373.808 295.29 373.43 294.948 372.95 294.72C372.482 294.48 371.96 294.36 371.384 294.36C370.556 294.36 369.848 294.624 369.26 295.152C368.684 295.68 368.354 296.412 368.27 297.348H374.498ZM379.99 294.738C380.278 294.174 380.686 293.736 381.214 293.424C381.754 293.112 382.408 292.956 383.176 292.956V294.648H382.744C380.908 294.648 379.99 295.644 379.99 297.636V303H378.352V293.136H379.99V294.738ZM393.843 303.126C393.015 303.126 392.271 302.982 391.611 302.694C390.963 302.394 390.453 301.986 390.081 301.47C389.709 300.942 389.517 300.336 389.505 299.652H391.251C391.311 300.24 391.551 300.738 391.971 301.146C392.403 301.542 393.027 301.74 393.843 301.74C394.623 301.74 395.235 301.548 395.679 301.164C396.135 300.768 396.363 300.264 396.363 299.652C396.363 299.172 396.231 298.782 395.967 298.482C395.703 298.182 395.373 297.954 394.977 297.798C394.581 297.642 394.047 297.474 393.375 297.294C392.547 297.078 391.881 296.862 391.377 296.646C390.885 296.43 390.459 296.094 390.099 295.638C389.751 295.17 389.577 294.546 389.577 293.766C389.577 293.082 389.751 292.476 390.099 291.948C390.447 291.42 390.933 291.012 391.557 290.724C392.193 290.436 392.919 290.292 393.735 290.292C394.911 290.292 395.871 290.586 396.615 291.174C397.371 291.762 397.797 292.542 397.893 293.514H396.093C396.033 293.034 395.781 292.614 395.337 292.254C394.893 291.882 394.305 291.696 393.573 291.696C392.889 291.696 392.331 291.876 391.899 292.236C391.467 292.584 391.251 293.076 391.251 293.712C391.251 294.168 391.377 294.54 391.629 294.828C391.893 295.116 392.211 295.338 392.583 295.494C392.967 295.638 393.501 295.806 394.185 295.998C395.013 296.226 395.679 296.454 396.183 296.682C396.687 296.898 397.119 297.24 397.479 297.708C397.839 298.164 398.019 298.788 398.019 299.58C398.019 300.192 397.857 300.768 397.533 301.308C397.209 301.848 396.729 302.286 396.093 302.622C395.457 302.958 394.707 303.126 393.843 303.126ZM399.818 298.032C399.818 297.024 400.022 296.142 400.43 295.386C400.838 294.618 401.396 294.024 402.104 293.604C402.824 293.184 403.622 292.974 404.498 292.974C405.362 292.974 406.112 293.16 406.748 293.532C407.384 293.904 407.858 294.372 408.17 294.936V293.136H409.826V303H408.17V301.164C407.846 301.74 407.36 302.22 406.712 302.604C406.076 302.976 405.332 303.162 404.48 303.162C403.604 303.162 402.812 302.946 402.104 302.514C401.396 302.082 400.838 301.476 400.43 300.696C400.022 299.916 399.818 299.028 399.818 298.032ZM408.17 298.05C408.17 297.306 408.02 296.658 407.72 296.106C407.42 295.554 407.012 295.134 406.496 294.846C405.992 294.546 405.434 294.396 404.822 294.396C404.21 294.396 403.652 294.54 403.148 294.828C402.644 295.116 402.242 295.536 401.942 296.088C401.642 296.64 401.492 297.288 401.492 298.032C401.492 298.788 401.642 299.448 401.942 300.012C402.242 300.564 402.644 300.99 403.148 301.29C403.652 301.578 404.21 301.722 404.822 301.722C405.434 301.722 405.992 301.578 406.496 301.29C407.012 300.99 407.42 300.564 407.72 300.012C408.02 299.448 408.17 298.794 408.17 298.05ZM414.592 294.486V300.3C414.592 300.78 414.694 301.122 414.898 301.326C415.102 301.518 415.456 301.614 415.96 301.614H417.166V303H415.69C414.778 303 414.094 302.79 413.638 302.37C413.182 301.95 412.954 301.26 412.954 300.3V294.486H411.676V293.136H412.954V290.652H414.592V293.136H417.166V294.486H414.592ZM419.997 291.534C419.685 291.534 419.421 291.426 419.205 291.21C418.989 290.994 418.881 290.73 418.881 290.418C418.881 290.106 418.989 289.842 419.205 289.626C419.421 289.41 419.685 289.302 419.997 289.302C420.297 289.302 420.549 289.41 420.753 289.626C420.969 289.842 421.077 290.106 421.077 290.418C421.077 290.73 420.969 290.994 420.753 291.21C420.549 291.426 420.297 291.534 419.997 291.534ZM420.789 293.136V303H419.151V293.136H420.789ZM427.072 303.162C426.316 303.162 425.638 303.036 425.038 302.784C424.438 302.52 423.964 302.16 423.616 301.704C423.268 301.236 423.076 300.702 423.04 300.102H424.732C424.78 300.594 425.008 300.996 425.416 301.308C425.836 301.62 426.382 301.776 427.054 301.776C427.678 301.776 428.17 301.638 428.53 301.362C428.89 301.086 429.07 300.738 429.07 300.318C429.07 299.886 428.878 299.568 428.494 299.364C428.11 299.148 427.516 298.938 426.712 298.734C425.98 298.542 425.38 298.35 424.912 298.158C424.456 297.954 424.06 297.66 423.724 297.276C423.4 296.88 423.238 296.364 423.238 295.728C423.238 295.224 423.388 294.762 423.688 294.342C423.988 293.922 424.414 293.592 424.966 293.352C425.518 293.1 426.148 292.974 426.856 292.974C427.948 292.974 428.83 293.25 429.502 293.802C430.174 294.354 430.534 295.11 430.582 296.07H428.944C428.908 295.554 428.698 295.14 428.314 294.828C427.942 294.516 427.438 294.36 426.802 294.36C426.214 294.36 425.746 294.486 425.398 294.738C425.05 294.99 424.876 295.32 424.876 295.728C424.876 296.052 424.978 296.322 425.182 296.538C425.398 296.742 425.662 296.91 425.974 297.042C426.298 297.162 426.742 297.3 427.306 297.456C428.014 297.648 428.59 297.84 429.034 298.032C429.478 298.212 429.856 298.488 430.168 298.86C430.492 299.232 430.66 299.718 430.672 300.318C430.672 300.858 430.522 301.344 430.222 301.776C429.922 302.208 429.496 302.55 428.944 302.802C428.404 303.042 427.78 303.162 427.072 303.162ZM436.999 294.486H434.929V303H433.291V294.486H432.013V293.136H433.291V292.434C433.291 291.33 433.573 290.526 434.137 290.022C434.713 289.506 435.631 289.248 436.891 289.248V290.616C436.171 290.616 435.661 290.76 435.361 291.048C435.073 291.324 434.929 291.786 434.929 292.434V293.136H436.999V294.486ZM438.296 298.032C438.296 297.024 438.5 296.142 438.908 295.386C439.316 294.618 439.874 294.024 440.582 293.604C441.302 293.184 442.1 292.974 442.976 292.974C443.84 292.974 444.59 293.16 445.226 293.532C445.862 293.904 446.336 294.372 446.648 294.936V293.136H448.304V303H446.648V301.164C446.324 301.74 445.838 302.22 445.19 302.604C444.554 302.976 443.81 303.162 442.958 303.162C442.082 303.162 441.29 302.946 440.582 302.514C439.874 302.082 439.316 301.476 438.908 300.696C438.5 299.916 438.296 299.028 438.296 298.032ZM446.648 298.05C446.648 297.306 446.498 296.658 446.198 296.106C445.898 295.554 445.49 295.134 444.974 294.846C444.47 294.546 443.912 294.396 443.3 294.396C442.688 294.396 442.13 294.54 441.626 294.828C441.122 295.116 440.72 295.536 440.42 296.088C440.12 296.64 439.97 297.288 439.97 298.032C439.97 298.788 440.12 299.448 440.42 300.012C440.72 300.564 441.122 300.99 441.626 301.29C442.13 301.578 442.688 301.722 443.3 301.722C443.912 301.722 444.47 301.578 444.974 301.29C445.49 300.99 445.898 300.564 446.198 300.012C446.498 299.448 446.648 298.794 446.648 298.05ZM450.461 298.05C450.461 297.03 450.665 296.142 451.073 295.386C451.481 294.618 452.045 294.024 452.765 293.604C453.497 293.184 454.331 292.974 455.267 292.974C456.479 292.974 457.475 293.268 458.255 293.856C459.047 294.444 459.569 295.26 459.821 296.304H458.057C457.889 295.704 457.559 295.23 457.067 294.882C456.587 294.534 455.987 294.36 455.267 294.36C454.331 294.36 453.575 294.684 452.999 295.332C452.423 295.968 452.135 296.874 452.135 298.05C452.135 299.238 452.423 300.156 452.999 300.804C453.575 301.452 454.331 301.776 455.267 301.776C455.987 301.776 456.587 301.608 457.067 301.272C457.547 300.936 457.877 300.456 458.057 299.832H459.821C459.557 300.84 459.029 301.65 458.237 302.262C457.445 302.862 456.455 303.162 455.267 303.162C454.331 303.162 453.497 302.952 452.765 302.532C452.045 302.112 451.481 301.518 451.073 300.75C450.665 299.982 450.461 299.082 450.461 298.05ZM464.004 294.486V300.3C464.004 300.78 464.106 301.122 464.31 301.326C464.514 301.518 464.868 301.614 465.372 301.614H466.578V303H465.102C464.19 303 463.506 302.79 463.05 302.37C462.594 301.95 462.366 301.26 462.366 300.3V294.486H461.088V293.136H462.366V290.652H464.004V293.136H466.578V294.486H464.004ZM469.409 291.534C469.097 291.534 468.833 291.426 468.617 291.21C468.401 290.994 468.293 290.73 468.293 290.418C468.293 290.106 468.401 289.842 468.617 289.626C468.833 289.41 469.097 289.302 469.409 289.302C469.709 289.302 469.961 289.41 470.165 289.626C470.381 289.842 470.489 290.106 470.489 290.418C470.489 290.73 470.381 290.994 470.165 291.21C469.961 291.426 469.709 291.534 469.409 291.534ZM470.201 293.136V303H468.563V293.136H470.201ZM477.294 303.162C476.37 303.162 475.53 302.952 474.774 302.532C474.03 302.112 473.442 301.518 473.01 300.75C472.59 299.97 472.38 299.07 472.38 298.05C472.38 297.042 472.596 296.154 473.028 295.386C473.472 294.606 474.072 294.012 474.828 293.604C475.584 293.184 476.43 292.974 477.366 292.974C478.302 292.974 479.148 293.184 479.904 293.604C480.66 294.012 481.254 294.6 481.686 295.368C482.13 296.136 482.352 297.03 482.352 298.05C482.352 299.07 482.124 299.97 481.668 300.75C481.224 301.518 480.618 302.112 479.85 302.532C479.082 302.952 478.23 303.162 477.294 303.162ZM477.294 301.722C477.882 301.722 478.434 301.584 478.95 301.308C479.466 301.032 479.88 300.618 480.192 300.066C480.516 299.514 480.678 298.842 480.678 298.05C480.678 297.258 480.522 296.586 480.21 296.034C479.898 295.482 479.49 295.074 478.986 294.81C478.482 294.534 477.936 294.396 477.348 294.396C476.748 294.396 476.196 294.534 475.692 294.81C475.2 295.074 474.804 295.482 474.504 296.034C474.204 296.586 474.054 297.258 474.054 298.05C474.054 298.854 474.198 299.532 474.486 300.084C474.786 300.636 475.182 301.05 475.674 301.326C476.166 301.59 476.706 301.722 477.294 301.722ZM489.312 292.956C490.512 292.956 491.484 293.322 492.228 294.054C492.972 294.774 493.344 295.818 493.344 297.186V303H491.724V297.42C491.724 296.436 491.478 295.686 490.986 295.17C490.494 294.642 489.822 294.378 488.97 294.378C488.106 294.378 487.416 294.648 486.9 295.188C486.396 295.728 486.144 296.514 486.144 297.546V303H484.506V293.136H486.144V294.54C486.468 294.036 486.906 293.646 487.458 293.37C488.022 293.094 488.64 292.956 489.312 292.956Z" fill="white"/>
<line x1="0.5" y1="189" x2="532.5" y2="189" stroke="#184937"/>
<line x1="267" y1="0.5" x2="267" y2="377.5" stroke="#184937"/>
</svg>
